<?xml version="1.0" encoding="UTF-8" standalone="no"?>
<!-- Created with Inkscape (http://www.inkscape.org/) -->

<svg
   width="64"
   height="64"
   viewBox="0 0 16.933333 16.933333"
   version="1.1"
   id="svg330"
   xml:space="preserve"
   inkscape:version="1.2.2 (b0a8486541, 2022-12-01)"
   sodipodi:docname="Ok_icon.svg"
   xmlns:inkscape="http://www.inkscape.org/namespaces/inkscape"
   xmlns:sodipodi="http://sodipodi.sourceforge.net/DTD/sodipodi-0.dtd"
   xmlns="http://www.w3.org/2000/svg"
   xmlns:svg="http://www.w3.org/2000/svg"><sodipodi:namedview
     id="namedview332"
     pagecolor="#505050"
     bordercolor="#eeeeee"
     borderopacity="1"
     inkscape:showpageshadow="0"
     inkscape:pageopacity="0"
     inkscape:pagecheckerboard="0"
     inkscape:deskcolor="#505050"
     inkscape:document-units="mm"
     showgrid="false"
     inkscape:zoom="3.011083"
     inkscape:cx="47.989377"
     inkscape:cy="23.911662"
     inkscape:window-width="1872"
     inkscape:window-height="1011"
     inkscape:window-x="48"
     inkscape:window-y="32"
     inkscape:window-maximized="1"
     inkscape:current-layer="layer1" /><defs
     id="defs327" /><g
     inkscape:label="Layer 1"
     inkscape:groupmode="layer"
     id="layer1"><path
       style="fill:#434c6d;stroke:none;stroke-width:0.0807424;fill-opacity:1"
       d="m 0.98547788,16.139584 c 0.58888002,-0.06081 0.83352002,-0.476055 1.25883002,-0.807472 0.5758,-0.44876 1.26236,-0.81976 2.01087,-0.944876 1.52192,-0.254592 3.04182,0.711125 4.61111,0.572709 1.4242501,-0.125583 2.7375801,-0.436707 3.9404101,-1.180802 0.81524,-0.50436 1.52418,-1.158721 2.06611,-1.916427 3.84383,-5.3736895 -1.67081,-12.44109149 -8.3540001,-10.8376125 -1.05569,0.253289 -2.01732,0.764415 -2.8505,1.409422 -0.90462,0.700332 -1.64324,1.653287 -2.09496,2.662963 -0.57723002,1.28998 -0.90931002,2.957882 -0.73166002,4.35463 0.27944002,2.1960535 -0.29142,4.5133405 0.14379,6.6874655 M 8.4470979,6.6527145 h 0.0838 c 0.50328,-0.662682 1.5772501,-1.878496 2.4313101,-2.126555 0.88089,-0.25584 1.67954,0.443738 1.47606,1.27118 -0.16608,0.675278 -1.05569,1.242624 -1.5599,1.710746 -0.18402,0.170842 -0.58217,0.430953 -0.58217,0.699852 0,0.268898 0.39815,0.529009 0.58217,0.699851 0.50739,0.471079 1.37747,1.034457 1.55781,1.7107495 0.21009,0.787721 -0.6028,1.616809 -1.47397,1.310121 -0.85314,-0.300393 -1.9141201,-1.484539 -2.4313101,-2.1654965 -0.70341,0.6524165 -1.57298,1.8340765 -2.51516,2.1654965 -0.89765,0.315787 -1.72338,-0.600084 -1.43749,-1.387884 0.23525,-0.6481395 1.01629,-1.1641625 1.52133,-1.6329865 0.18403,-0.170842 0.58218,-0.430953 0.58218,-0.699851 0,-0.268899 -0.39815,-0.52901 -0.58218,-0.699852 -0.51267,-0.475898 -1.37252,-1.026604 -1.54816,-1.710746 -0.21202,-0.825629 0.58519,-1.526524 1.46432,-1.27118 0.85407,0.248059 1.92804,1.463873 2.43132,2.126555 z"
       id="path306" /></g></svg>
