<?xml version="1.0" encoding="UTF-8" standalone="no"?>
<!-- Created with Inkscape (http://www.inkscape.org/) -->

<svg
   width="64"
   height="64"
   viewBox="0 0 16.933333 16.933333"
   version="1.1"
   id="svg5"
   xml:space="preserve"
   inkscape:version="1.2.2 (b0a8486541, 2022-12-01)"
   sodipodi:docname="Color_palette.svg"
   xmlns:inkscape="http://www.inkscape.org/namespaces/inkscape"
   xmlns:sodipodi="http://sodipodi.sourceforge.net/DTD/sodipodi-0.dtd"
   xmlns="http://www.w3.org/2000/svg"
   xmlns:svg="http://www.w3.org/2000/svg"><sodipodi:namedview
     id="namedview7"
     pagecolor="#505050"
     bordercolor="#eeeeee"
     borderopacity="1"
     inkscape:showpageshadow="0"
     inkscape:pageopacity="0"
     inkscape:pagecheckerboard="0"
     inkscape:deskcolor="#505050"
     inkscape:document-units="mm"
     showgrid="false"
     inkscape:zoom="3.011083"
     inkscape:cx="-53.967293"
     inkscape:cy="-23.247449"
     inkscape:window-width="1872"
     inkscape:window-height="1011"
     inkscape:window-x="48"
     inkscape:window-y="32"
     inkscape:window-maximized="1"
     inkscape:current-layer="layer1" /><defs
     id="defs2"><style
       type="text/css"
       id="style318" /><style
       type="text/css"
       id="style1305" /></defs><g
     inkscape:label="Layer 1"
     inkscape:groupmode="layer"
     id="layer1"><g
       id="g4456"
       transform="matrix(0.9062501,0,0,0.90625013,-103.19632,-39.86224)"><path
         style="fill:#13227a;fill-opacity:1;stroke:none;stroke-width:0.0801809"
         d="m 130.60432,61.408038 c -0.14496,-0.790247 -0.63394,-1.473641 -0.76547,-2.291945 -0.10649,-0.662452 0.13251,-1.321663 -0.022,-1.975813 -0.30375,-1.285546 -1.2093,-1.582944 -2.30365,-0.981903 -0.21947,0.120525 -0.51435,0.224531 -0.64849,0.445508 -0.28114,0.462973 0.015,1.210699 0.22402,1.642848 0.56211,1.161858 2.10346,3.019993 3.51563,3.161305 z"
         id="path940" /><path
         style="fill:#13227a;fill-opacity:1;stroke:none;stroke-width:0.0801809"
         d="m 125.88623,55.401561 0.40673,0.790328 2.03366,-1.027425 -0.32539,-0.711293 -2.115,0.94839"
         id="path938" /><path
         style="fill:#13227a;fill-opacity:1;stroke:none;stroke-width:0.0801809"
         d="m 128.48931,60.933845 -1.64197,-1.896782 -0.89554,-2.291945 -5.19038,-10.432299 c -1.86567,0.510574 -3.58821,1.26626 -4.84274,2.766141 -1.90783,2.280959 -1.46414,5.669083 1.18215,7.234325 1.28615,0.760768 2.85146,0.826997 4.31135,0.826997 0.70666,0 1.6371,-0.26563 2.2777,0.09705 0.98144,0.555676 1.05693,1.635895 0.77865,2.590054 -0.12503,0.428753 -0.39038,0.881767 -0.25526,1.340391 0.13657,0.463606 0.68265,0.543507 1.10354,0.601596 1.1229,0.154906 2.18244,-0.42314 3.1725,-0.83553 M 117.9143,49.025902 c 1.81089,-0.306354 2.47128,2.450665 0.65077,2.792322 -1.95755,0.367346 -2.61872,-2.459397 -0.65077,-2.792322 m 0.0813,3.319392 c 1.94105,-0.340316 2.58893,2.459178 0.65077,2.79317 -1.84704,0.318185 -2.50758,-2.467557 -0.65077,-2.79317 m 3.66058,0.711374 c 1.94833,-0.329488 2.37979,2.597324 0.40674,2.858291 -1.83075,0.242155 -2.22471,-2.550858 -0.40674,-2.858291"
         id="path936" /><path
         style="fill:#13227a;fill-opacity:1;stroke:none;stroke-width:0.0801809"
         d="m 123.28315,46.075721 c 1.67785,2.928094 3.82759,5.584045 5.47534,8.535518 0.40152,0.719355 1.12428,1.15988 1.48766,1.896781 0.34775,0.705128 0.19547,1.538765 0.19547,2.291945 0.82062,-0.962379 1.15333,-2.655022 1.22304,-3.872597 0.28374,-4.949256 -3.15688,-8.851093 -8.38151,-8.851647 m 5.04347,2.477203 c 1.25224,-0.187434 1.57039,1.689391 0.32539,1.921115 -1.30464,0.242788 -1.65093,-1.722712 -0.32539,-1.921115 m 1.46423,2.529113 c 1.24834,-0.18296 1.57161,1.689086 0.32539,1.921046 -1.30463,0.242788 -1.65166,-1.726705 -0.32539,-1.921046"
         id="path934" /><path
         style="fill:#13227a;fill-opacity:1;stroke:none;stroke-width:0.0801809"
         d="m 125.56085,54.927368 c 0.41112,-0.07706 1.94783,-0.662135 1.98956,-1.114752 0.0599,-0.650282 -1.10932,-1.90603 -1.4744,-2.441714 -1.11973,-1.64284 -2.19863,-3.315407 -3.28525,-4.97905 -0.2551,-0.390556 -0.80777,-1.581821 -1.37735,-1.528332 -0.49516,0.04652 -0.39893,0.592641 -0.26186,0.896071 0.4326,0.958167 0.93443,1.886499 1.36499,2.845172 0.38314,0.853141 0.83697,1.675887 1.2202,2.529042 0.57398,1.278114 1.27266,2.506757 1.82411,3.793563"
         id="path316" /></g></g></svg>
