<svg viewBox="0 0 32 32" xml:space="preserve" xmlns="http://www.w3.org/2000/svg" fill-rule="evenodd" clip-rule="evenodd" stroke-linejoin="round" stroke-miterlimit="2"><path d="m12.966 5.962-4.979.008a5 5 0 0 0-4.991 5V24c0 1.326.527 2.598 1.464 3.536A5.004 5.004 0 0 0 7.996 29h13.003a5 5 0 0 0 5-5v-5.004a1 1 0 0 0-2 0V24a3 3 0 0 1-3 3H7.996a2.996 2.996 0 0 1-2.121-.879A2.996 2.996 0 0 1 4.996 24V10.97a3 3 0 0 1 2.995-3l4.979-.008a1 1 0 0 0-.004-2Z" fill="#9e9e9e" class="fill-000000"></path><path d="m22.572 3.886-9.371 9.371a.992.992 0 0 0-.271.501l-1.081 5.152a1 1 0 0 0 1.175 1.186l5.194-1.038c.193-.039.371-.134.511-.274l9.371-9.37a3.909 3.909 0 0 0 0-5.527l-.001-.001a3.909 3.909 0 0 0-5.527 0Zm-1.111 3.939 2.699 2.7-6.631 6.631-3.412.682.709-3.378 6.635-6.635Zm4.113 1.285-2.699-2.699L23.986 5.3a1.908 1.908 0 0 1 2.699 2.699L25.574 9.11Z" fill="#9e9e9e" class="fill-000000"></path></svg>