<?xml version="1.0" encoding="UTF-8" standalone="no"?>
<!-- Created with Inkscape (http://www.inkscape.org/) -->

<svg
   width="32"
   height="32"
   viewBox="0 0 8.4666666 8.4666666"
   version="1.1"
   id="svg1"
   inkscape:version="1.3 (0e150ed6c4, 2023-07-21)"
   sodipodi:docname="face_selector.svg"
   xmlns:inkscape="http://www.inkscape.org/namespaces/inkscape"
   xmlns:sodipodi="http://sodipodi.sourceforge.net/DTD/sodipodi-0.dtd"
   xmlns="http://www.w3.org/2000/svg"
   xmlns:svg="http://www.w3.org/2000/svg">
  <sodipodi:namedview
     id="namedview1"
     pagecolor="#ffffff"
     bordercolor="#666666"
     borderopacity="1.0"
     inkscape:showpageshadow="2"
     inkscape:pageopacity="0.0"
     inkscape:pagecheckerboard="0"
     inkscape:deskcolor="#d1d1d1"
     inkscape:document-units="px"
     showguides="true"
     inkscape:zoom="11.313709"
     inkscape:cx="3.7123104"
     inkscape:cy="16.661203"
     inkscape:window-width="1920"
     inkscape:window-height="1017"
     inkscape:window-x="-8"
     inkscape:window-y="-8"
     inkscape:window-maximized="1"
     inkscape:current-layer="layer1" />
  <defs
     id="defs1">
    <inkscape:perspective
       sodipodi:type="inkscape:persp3d"
       inkscape:vp_x="-13.594653 : -9.7384941 : 1"
       inkscape:vp_y="5403.1224 : 0 : 0"
       inkscape:vp_z="32.623968 : -9.7384941 : 1"
       inkscape:persp3d-origin="9.5146577 : -17.3629 : 1"
       id="perspective15" />
  </defs>
  <g
     inkscape:label="Layer 1"
     inkscape:groupmode="layer"
     id="layer1">
    <g
       id="g27"
       transform="matrix(0.999826,0,0,1.0000032,0.26458349,-1.3218071e-5)">
      <path
         style="fill:none;stroke:#000000;stroke-width:0.260782px;stroke-linecap:butt;stroke-linejoin:miter;stroke-opacity:1"
         d="M 3.96875,0.14920436 0.26824389,2.207524 3.96875,4.2658436 7.669256,2.207524 Z"
         id="path25"
         sodipodi:nodetypes="ccccc" />
      <path
         style="fill:none;stroke:#000000;stroke-width:0.28508px;stroke-linecap:butt;stroke-linejoin:miter;stroke-opacity:1"
         d="M 7.7963287,2.2061925 V 6.293975"
         id="path26" />
      <path
         style="fill:none;stroke:#000000;stroke-width:0.28508px;stroke-linecap:butt;stroke-linejoin:miter;stroke-opacity:1"
         d="M 0.14832317,2.2095149 V 6.2972974"
         id="path26-7" />
      <path
         style="fill:none;stroke:#000000;stroke-width:0.28508px;stroke-linecap:butt;stroke-linejoin:miter;stroke-opacity:1"
         d="M 3.9556002,4.2154785 V 8.3032609"
         id="path26-75" />
      <path
         style="fill:none;stroke:#000000;stroke-width:0.26946px;stroke-linecap:butt;stroke-linejoin:miter;stroke-opacity:1"
         d="M 7.8704298,6.1779874 3.9661215,8.3130955 0.07246524,6.1804036"
         id="path27"
         sodipodi:nodetypes="ccc" />
    </g>
    <path
       style="fill:#ff0000;stroke:#ff0000;stroke-width:0.0668132;stroke-linecap:square;stroke-dasharray:none;paint-order:markers stroke fill"
       d="m 8.687736,26.796289 -6.5592539,-3.594348 -0.00358,-7.087309 -0.00358,-7.0873087 6.6278229,3.6843577 6.627823,3.684357 0.0013,7.004777 c 7.16e-4,3.852627 -0.02853,7.001412 -0.06499,6.997299 -0.03646,-0.0041 -3.017955,-1.624934 -6.6255452,-3.601825 z"
       id="path28"
       transform="scale(0.26458333)" />
    <path
       style="fill:#ffffff;stroke:#000000;stroke-width:0.0668132;stroke-linecap:square;stroke-dasharray:none;paint-order:markers stroke fill"
       d="m 16.550189,23.462106 0.02263,-7.030772 6.651223,-3.702243 6.651223,-3.7022417 -0.0027,7.0875457 -0.0027,7.087546 -6.118241,3.337969 c -3.365033,1.835883 -6.367072,3.476344 -6.671198,3.645469 l -0.552956,0.3075 z"
       id="path29"
       transform="scale(0.26458333)" />
    <path
       style="fill:#ffffff;stroke:#000000;stroke-width:0.0668132;stroke-linecap:square;stroke-dasharray:none;paint-order:markers stroke fill"
       d="M 9.5655317,11.91867 C 6.0518209,9.9650049 3.2079258,8.338059 3.2457648,8.3032347 3.3735174,8.1856604 15.911527,1.2374369 15.995936,1.2374369 c 0.08726,0 12.633627,6.9488531 12.755922,7.0649164 0.05765,0.054708 -12.419715,7.0705157 -12.70699,7.1449247 -0.04992,0.01293 -2.965625,-1.574943 -6.4793363,-3.528608 z"
       id="path30"
       transform="scale(0.26458333)" />
  </g>
</svg>
