<?xml version="1.0" encoding="UTF-8" standalone="no"?>
<!-- Created with Inkscape (http://www.inkscape.org/) -->

<svg
   width="64"
   height="64"
   viewBox="0 0 16.933333 16.933333"
   version="1.1"
   id="svg5"
   xml:space="preserve"
   inkscape:version="1.2.2 (b0a8486541, 2022-12-01)"
   sodipodi:docname="drawing.svg"
   xmlns:inkscape="http://www.inkscape.org/namespaces/inkscape"
   xmlns:sodipodi="http://sodipodi.sourceforge.net/DTD/sodipodi-0.dtd"
   xmlns="http://www.w3.org/2000/svg"
   xmlns:svg="http://www.w3.org/2000/svg"><sodipodi:namedview
     id="namedview7"
     pagecolor="#505050"
     bordercolor="#eeeeee"
     borderopacity="1"
     inkscape:showpageshadow="0"
     inkscape:pageopacity="0"
     inkscape:pagecheckerboard="0"
     inkscape:deskcolor="#505050"
     inkscape:document-units="mm"
     showgrid="false"
     inkscape:zoom="3.011083"
     inkscape:cx="22.085077"
     inkscape:cy="37.195919"
     inkscape:window-width="1872"
     inkscape:window-height="1011"
     inkscape:window-x="48"
     inkscape:window-y="32"
     inkscape:window-maximized="1"
     inkscape:current-layer="layer1" /><defs
     id="defs2" /><g
     inkscape:label="Layer 1"
     inkscape:groupmode="layer"
     id="layer1"><path
       style="fill:#434c6d;fill-opacity:1;stroke:none;stroke-width:0.0809438"
       d="m 1.0323996,16.139594 c 0.548098,-0.0784 0.851927,-0.50953 1.26164,-0.82065 0.60399,-0.45874 1.318003,-0.84285 2.102735,-0.94763 0.871516,-0.1163 1.68985,0.24078 2.523282,0.41099 1.060451,0.21648 2.131668,0.23221 3.1961564,0.0327 1.29007,-0.2418 2.54288,-0.75304 3.532595,-1.5712 4.938484,-4.0822998 2.115183,-12.45006483 -4.7942354,-12.45006483 -0.780536,0 -1.513195,0.0038 -2.270954,0.200936 -1.029886,0.26795103 -1.943414,0.71876103 -2.77561,1.34181103 -0.879111,0.658166 -1.603041,1.557199 -2.076711,2.50793 -0.720943,1.447027 -0.87524196,3.022668 -0.86704996,4.595958 0.01106,2.1249698 -0.250183,4.6123198 0.16815196,6.6991998 m 6.392313,-6.5433998 c 0.431649,-0.92768 1.120505,-1.783312 1.682188,-2.648521 0.527618,-0.812628 1.1326174,-2.299709 2.0198874,-2.803591 0.788693,-0.447881 1.822987,0.16308 1.745858,1.011944 -0.06249,0.687438 -0.783394,1.447807 -1.158354,2.025339 -1.003509,1.545729 -1.9245074,3.5645988 -3.2406514,4.8908788 -1.144098,1.15304 -2.573503,-0.78746 -3.3056,-1.44087 -0.37702,-0.33644 -0.860556,-0.6738198 -0.922352,-1.1909798 -0.08969,-0.75062 0.699277,-1.42007 1.496836,-1.15779 0.677737,0.22287 1.188954,0.8568 1.682188,1.31359"
       id="path302" /></g></svg>
