<?xml version="1.0" encoding="UTF-8" standalone="no"?>
<svg
   version="1.1"
   viewBox="-5 -10 64 64"
   id="svg2"
   sodipodi:docname="Solution.svg"
   xml:space="preserve"
   width="64"
   height="64"
   inkscape:version="1.4 (1:1.4+202410161351+e7c3feb100)"
   xmlns:inkscape="http://www.inkscape.org/namespaces/inkscape"
   xmlns:sodipodi="http://sodipodi.sourceforge.net/DTD/sodipodi-0.dtd"
   xmlns="http://www.w3.org/2000/svg"
   xmlns:svg="http://www.w3.org/2000/svg"><defs
     id="defs2"><style
       type="text/css"
       id="style1" /><style
       type="text/css"
       id="style1-5" /><style
       type="text/css"
       id="style1-1" /></defs><sodipodi:namedview
     id="namedview2"
     pagecolor="#505050"
     bordercolor="#eeeeee"
     borderopacity="1"
     inkscape:showpageshadow="0"
     inkscape:pageopacity="0"
     inkscape:pagecheckerboard="0"
     inkscape:deskcolor="#505050"
     inkscape:zoom="3.9090291"
     inkscape:cx="43.744878"
     inkscape:cy="77.001218"
     inkscape:window-width="1920"
     inkscape:window-height="1076"
     inkscape:window-x="0"
     inkscape:window-y="32"
     inkscape:window-maximized="1"
     inkscape:current-layer="svg2" /><g
     id="g7"
     transform="matrix(0.93103448,0,0,0.93103455,1.862069,1.517238)"><path
       d="m 55.989275,24.837818 h -5.249531 c -1.21313,3.952392 -4.896167,6.83376 -9.242285,6.83376 -4.35703,0 -8.029155,-2.881368 -9.242286,-6.83376 h -5.260442 v 4.830287 c 3.777789,0 6.83421,3.059857 6.83421,6.83376 0,3.777541 -3.060058,6.83376 -6.83421,6.83376 V 51 H 52.59376 c 1.876118,0 3.395235,-1.529928 3.395235,-3.395012 z"
       id="path5"
       style="fill:#13227a;fill-opacity:1;stroke-width:0.932573" /><path
       d="m 16.980343,2.6060205 c 0.663025,-0.6629813 1.734083,-0.6629813 2.404345,0 0.670308,0.6629813 0.663025,1.7339683 0,2.4041861 l -7.395265,7.3947774 c -0.663025,0.662981 -1.734083,0.662981 -2.4043447,0 L 5.6106027,8.4307701 c -0.663025,-0.6629813 -0.663025,-1.7339683 0,-2.4041861 0.663025,-0.6629813 1.7340826,-0.6629813 2.4043447,0 L 10.78366,8.7951142 Z"
       id="path4"
       style="stroke-width:0.932573" /><path
       d="m 1.3956087,-6.9889026 c -1.87611812,0 -3.3952357,1.5299281 -3.3952357,3.3950118 V 19.169456 H 8.4921605 v 2.834088 c 0,2.21115 1.7923705,3.999765 4.0000285,3.999765 2.211296,0 4.000029,-1.792252 4.000029,-3.999765 v -2.834088 h 10.502979 v -4.830287 c 3.77779,0 6.834211,-3.059857 6.834211,-6.8337602 0,-3.7775405 -3.060059,-6.83375988 -6.834211,-6.83375988 V -6.992726 L 1.3961683,-6.999996 Z"
       id="path3"
       style="fill:#9a9fde;fill-opacity:1;stroke-width:0.932573" /><path
       d="m 29.828819,-6.9889026 v 5.2491848 c 3.952653,1.21305044 6.83421,4.8958447 6.83421,9.2416762 0,4.3567426 -2.881557,8.0286256 -6.83421,9.2416766 v 5.260095 h 4.830605 c 0,3.777541 3.060059,6.83376 6.834211,6.83376 3.77779,0 6.83421,-3.059856 6.83421,-6.83376 h 7.664881 L 56,-3.593611 c 0,-1.8759944 -1.530029,-3.3950119 -3.395236,-3.3950119 z"
       id="path2"
       style="fill:#6362f6;fill-opacity:1;stroke-width:0.932573" /><path
       d="m -2,22.003824 h 7.6648802 c 0,3.77754 3.0600581,6.833759 6.8342108,6.833759 3.777789,0 6.83421,-3.059856 6.83421,-6.833759 h 4.830606 v 10.491095 h 2.830637 c 2.211296,0 4.000029,1.792252 4.000029,3.999766 0,2.21115 -1.79237,3.999765 -4.000029,3.999765 H 24.160269 V 50.985546 H 1.3954222 c -1.87611814,0 -3.3952357,-1.529929 -3.3952357,-3.395012 z"
       id="path1"
       style="fill:#6362f6;fill-opacity:1;stroke-width:0.932573" /></g></svg>
