<?xml version="1.0" encoding="UTF-8" standalone="no"?>
<!-- Uploaded to: SVG Repo, www.svgrepo.com, Generator: SVG Repo Mixer Tools -->

<svg
   width="64"
   height="64"
   viewBox="0 0 1.92 1.92"
   version="1.1"
   id="svg19754"
   sodipodi:docname="Surface_mesh.svg"
   inkscape:version="1.2.2 (b0a8486541, 2022-12-01)"
   xmlns:inkscape="http://www.inkscape.org/namespaces/inkscape"
   xmlns:sodipodi="http://sodipodi.sourceforge.net/DTD/sodipodi-0.dtd"
   xmlns:xlink="http://www.w3.org/1999/xlink"
   xmlns="http://www.w3.org/2000/svg"
   xmlns:svg="http://www.w3.org/2000/svg">
  <defs
     id="defs19758">
    <linearGradient
       inkscape:collect="always"
       id="linearGradient21137">
      <stop
         style="stop-color:#434c6d;stop-opacity:1;"
         offset="0"
         id="stop21133" />
      <stop
         style="stop-color:#7383bf;stop-opacity:1;"
         offset="1"
         id="stop21135" />
    </linearGradient>
    <linearGradient
       inkscape:collect="always"
       xlink:href="#linearGradient21137"
       id="linearGradient21139"
       x1="4"
       y1="12"
       x2="20"
       y2="12"
       gradientUnits="userSpaceOnUse" />
    <linearGradient
       inkscape:collect="always"
       xlink:href="#linearGradient21137"
       id="linearGradient28350"
       gradientUnits="userSpaceOnUse"
       x1="4"
       y1="12"
       x2="20"
       y2="12" />
  </defs>
  <sodipodi:namedview
     id="namedview19756"
     pagecolor="#505050"
     bordercolor="#eeeeee"
     borderopacity="1"
     inkscape:showpageshadow="0"
     inkscape:pageopacity="0"
     inkscape:pagecheckerboard="0"
     inkscape:deskcolor="#505050"
     showgrid="false"
     inkscape:zoom="8.45"
     inkscape:cx="35.207101"
     inkscape:cy="36.094675"
     inkscape:window-width="1920"
     inkscape:window-height="1043"
     inkscape:window-x="1920"
     inkscape:window-y="0"
     inkscape:window-maximized="1"
     inkscape:current-layer="svg19754" />
  <g
     stroke="none"
     stroke-width="1"
     fill="none"
     fill-rule="evenodd"
     id="g19752"
     style="fill:url(#linearGradient21139);fill-opacity:1;stroke:none;stroke-opacity:1"
     transform="matrix(0.12,0,0,0.12,-0.48,-0.48)">
    <path
       d="m 13.824456,16.262603 0.956152,0.955737 c 0.08447,-0.01587 0.171616,-0.02418 0.260698,-0.02418 0.774811,0 1.402919,0.628108 1.402919,1.402918 0,0.774811 -0.628108,1.402919 -1.402919,1.402919 -0.774811,0 -1.402919,-0.628108 -1.402919,-1.402919 0,-0.08872 0.0082,-0.175514 0.02398,-0.259663 L 12.706051,17.381009 Z M 15.041306,4 c 0.774811,0 1.402919,0.6281081 1.402919,1.4029186 0,0.7748106 -0.628108,1.4029186 -1.402919,1.4029186 -0.08908,0 -0.176226,-0.0083 -0.260698,-0.024177 L 9.5622063,12 l 2.3962407,2.39624 1.6496,-1.64894 1.117982,1.118641 -4.402373,4.402867 c 0.02525,0.105305 0.03862,0.215228 0.03862,0.328273 C 10.362272,19.371892 9.7341642,20 8.9593536,20 8.1845431,20 7.556435,19.371892 7.556435,18.597081 c 0,-0.77481 0.6281081,-1.402918 1.4029186,-1.402918 0.064017,0 0.1270319,0.0043 0.1887742,0.01259 L 10.840465,15.514882 5.6635718,10.337444 c -0.084458,0.01587 -0.1715865,0.02417 -0.2606532,0.02417 C 4.6281081,10.361613 4,9.7335046 4,8.958694 4,8.1838835 4.6281081,7.5557754 5.4029186,7.5557754 c 0.7748106,0 1.4029186,0.6281081 1.4029186,1.4029186 0,0.089082 -0.0083,0.1762258 -0.024177,0.2606982 L 8.443565,10.881359 10.840465,8.4851183 9.1481278,6.7932455 c -0.061742,0.0083 -0.1247575,0.012592 -0.1887742,0.012592 -0.7748105,0 -1.4029186,-0.628108 -1.4029186,-1.4029186 C 7.556435,4.6281081 8.1845431,4 8.9593536,4 c 0.7748106,0 1.4029184,0.6281081 1.4029184,1.4029186 0,0.1130456 -0.01337,0.2229682 -0.03862,0.3282729 L 11.958447,7.366477 13.66237,5.6625819 C 13.646622,5.5784327 13.638387,5.4916374 13.638387,5.4029186 13.638387,4.6281081 14.266495,4 15.041306,4 Z m 3.555775,3.5557754 C 19.371892,7.5557754 20,8.1838835 20,8.958694 c 0,0.7748106 -0.628108,1.402919 -1.402919,1.402919 -0.113045,0 -0.222968,-0.01337 -0.328273,-0.03862 L 16.59197,12 l 1.676838,1.677004 c 0.105305,-0.02525 0.215228,-0.03862 0.328273,-0.03862 0.774811,0 1.402919,0.628108 1.402919,1.402919 0,0.774811 -0.628108,1.402919 -1.402919,1.402919 -0.77481,0 -1.402918,-0.628108 -1.402918,-1.402919 0,-0.06388 0.0043,-0.126757 0.01254,-0.18837 l -4.500953,-4.501877 1.118641,-1.1186408 1.64894,1.6489408 1.733372,-1.734295 c -0.0083,-0.061613 -0.01254,-0.124493 -0.01254,-0.18837 0,-0.7748105 0.628108,-1.4029186 1.402918,-1.4029186 z M 6.5779013,12.746921 7.6963065,13.865327 6.7816603,14.780608 c 0.015874,0.08447 0.024177,0.171616 0.024177,0.260698 0,0.774811 -0.628108,1.402919 -1.4029186,1.402919 C 4.6281081,16.444225 4,15.816117 4,15.041306 c 0,-0.774811 0.6281081,-1.402919 1.4029186,-1.402919 0.088719,0 0.1755141,0.0082 0.2596633,0.02398 z"
       fill="#4285F4"
       fill-rule="nonzero"
       id="path19750"
       style="fill:url(#linearGradient28350);fill-opacity:1;stroke:none;stroke-opacity:1" />
  </g>
</svg>
