<?xml version="1.0" encoding="UTF-8" standalone="no"?>
<!-- Created with Inkscape (http://www.inkscape.org/) -->

<svg
   width="64"
   height="64"
   viewBox="0 0 16.933333 16.933333"
   version="1.1"
   id="svg5"
   xml:space="preserve"
   inkscape:version="1.2.2 (b0a8486541, 2022-12-01)"
   sodipodi:docname="Theme.svg"
   xmlns:inkscape="http://www.inkscape.org/namespaces/inkscape"
   xmlns:sodipodi="http://sodipodi.sourceforge.net/DTD/sodipodi-0.dtd"
   xmlns="http://www.w3.org/2000/svg"
   xmlns:svg="http://www.w3.org/2000/svg"><sodipodi:namedview
     id="namedview7"
     pagecolor="#505050"
     bordercolor="#eeeeee"
     borderopacity="1"
     inkscape:showpageshadow="0"
     inkscape:pageopacity="0"
     inkscape:pagecheckerboard="0"
     inkscape:deskcolor="#505050"
     inkscape:document-units="mm"
     showgrid="false"
     inkscape:zoom="1.5055415"
     inkscape:cx="206.9023"
     inkscape:cy="27.232726"
     inkscape:window-width="1920"
     inkscape:window-height="1043"
     inkscape:window-x="1920"
     inkscape:window-y="0"
     inkscape:window-maximized="1"
     inkscape:current-layer="layer1" /><defs
     id="defs2"><style
       type="text/css"
       id="style318" /><style
       type="text/css"
       id="style1305" /></defs><g
     inkscape:label="Layer 1"
     inkscape:groupmode="layer"
     id="layer1"><g
       id="g314"
       style="fill:#13227a;fill-opacity:1"
       transform="matrix(0.13080573,0,0,0.13092856,-4.6637324,-5.5668901)"><path
         style="fill:#13227a;fill-opacity:1;stroke:none;stroke-width:0.264583"
         d="m 139.80103,48.757799 c -8.34099,1.19489 -11.59987,6.76101 -15.7226,13.38043 -2.69769,4.3315 -5.45254,8.62674 -8.1407,12.96459 -2.09127,3.37423 -5.54461,11.15589 -10.26795,11.25087 -1.31075,0.0265 -2.33892,-1.41922 -3.175,-2.25504 -1.91717,-1.91638 -3.722159,-3.95552 -6.350009,-4.88209 -4.05421,-1.42955 -9.64353,1.35043 -11.13975,5.41126 -1.16231,3.15489 5.24219,7.59618 7.171,9.525 l 21.695839,21.695831 c 1.87087,1.87087 5.50228,7.19799 8.46667,6.80799 1.42134,-0.18679 2.49369,-1.62454 3.43932,-2.57466 3.42238,-3.43905 3.89969,-8.0346 0.70696,-11.90625 -2.21879,-2.69055 -6.52065,-4.67995 -3.9878,-8.466661 2.1254,-3.17791 5.68405,-4.91464 8.83735,-6.8924 5.56075,-3.48774 11.11541,-6.98579 16.66875,-10.4857 3.06123,-1.92961 6.4307,-3.55362 8.40608,-6.69899 7.4967,-11.9372 -1.96109,-28.97248 -16.60816,-26.87418"
         id="path302" /><path
         style="fill:#13227a;fill-opacity:1;stroke:none;stroke-width:0.264583"
         d="m 58.309358,120.34657 c -1.467115,2.21826 -4.791869,4.72519 -5.230548,7.40833 -0.303213,1.85658 1.135592,3.04694 2.320131,4.23333 1.059127,1.06098 2.202657,2.56699 3.704167,2.99853 2.285471,0.65669 6.522508,-2.13281 8.466667,-3.26311 -1.656292,3.97854 -5.208059,7.40145 -1.321858,11.10086 0.861483,0.82021 1.908444,1.63062 3.173944,1.43351 2.92153,-0.45482 5.66155,-3.71025 8.20208,-5.12604 -1.36419,2.58974 -4.30874,5.79993 -4.66381,8.73125 -0.27834,2.29632 2.89798,5.38163 5.19298,4.91887 3.60653,-0.72707 7.42077,-5.64541 10.31875,-7.82928 -1.38219,4.0595 -3.97351,7.62264 -5.47053,11.64166 -1.20544,3.23612 5.82295,11.0281 9.16014,8.79951 1.11231,-0.74295 1.34409,-2.09258 1.83277,-3.24326 0.93636,-2.20424 2.0836,-4.29815 3.3147,-6.35 3.961339,-6.60267 8.793959,-12.37112 13.717589,-18.25625 1.68063,-2.00871 6.17776,-5.64065 5.95868,-8.46666 -0.15822,-2.04021 -2.57307,-3.69306 -3.9071,-5.02709 L 101.43644,112.40907 86.090611,97.063229 c -1.83859,-1.83859 -4.28387,-5.44036 -6.87917,-6.12669 -2.76807,-0.7321 -6.53309,3.90049 -8.46667,5.48534 -6.275119,5.143241 -12.815884,10.206301 -19.843746,14.287501 -2.184162,1.26815 -7.803992,2.68446 -8.948474,4.87971 -1.48918,2.85644 4.619599,8.98261 7.360974,8.91408 2.953014,-0.0738 6.293908,-3.0316 8.995833,-4.1566 m 0.264583,-0.26459 -0.264583,0.26459 0.264583,-0.26459 m 19.31458,18.78542 -0.26458,0.26458 0.26458,-0.26458 m 10.84792,5.82083 -0.26458,0.26459 z"
         id="path306" /></g></g></svg>
