<?xml version="1.0" encoding="UTF-8" standalone="no"?>
<!-- Created with Inkscape (http://www.inkscape.org/) -->

<svg
   width="64"
   height="64"
   viewBox="0 0 16.933333 16.933333"
   version="1.1"
   id="svg5"
   xml:space="preserve"
   inkscape:version="1.2.2 (b0a8486541, 2022-12-01)"
   sodipodi:docname="Volume_mesh.svg"
   xmlns:inkscape="http://www.inkscape.org/namespaces/inkscape"
   xmlns:sodipodi="http://sodipodi.sourceforge.net/DTD/sodipodi-0.dtd"
   xmlns:xlink="http://www.w3.org/1999/xlink"
   xmlns="http://www.w3.org/2000/svg"
   xmlns:svg="http://www.w3.org/2000/svg"><sodipodi:namedview
     id="namedview7"
     pagecolor="#505050"
     bordercolor="#eeeeee"
     borderopacity="1"
     inkscape:showpageshadow="0"
     inkscape:pageopacity="0"
     inkscape:pagecheckerboard="0"
     inkscape:deskcolor="#505050"
     inkscape:document-units="mm"
     showgrid="false"
     inkscape:zoom="4.2583145"
     inkscape:cx="49.432704"
     inkscape:cy="16.908098"
     inkscape:window-width="1920"
     inkscape:window-height="1043"
     inkscape:window-x="1920"
     inkscape:window-y="0"
     inkscape:window-maximized="1"
     inkscape:current-layer="layer1" /><defs
     id="defs2"><linearGradient
       inkscape:collect="always"
       id="linearGradient9639"><stop
         style="stop-color:#4e587f;stop-opacity:1;"
         offset="0"
         id="stop9635" /><stop
         style="stop-color:#6776ab;stop-opacity:1;"
         offset="1"
         id="stop9637" /></linearGradient><linearGradient
       inkscape:collect="always"
       id="linearGradient6727"><stop
         style="stop-color:#454e71;stop-opacity:1;"
         offset="0"
         id="stop6723" /><stop
         style="stop-color:#7180bb;stop-opacity:1;"
         offset="1"
         id="stop6725" /></linearGradient><linearGradient
       inkscape:collect="always"
       id="linearGradient3751"><stop
         style="stop-color:#434c6d;stop-opacity:1;"
         offset="0"
         id="stop3747" /><stop
         style="stop-color:#7383bf;stop-opacity:1;"
         offset="1"
         id="stop3749" /></linearGradient><linearGradient
       id="linearGradient1767"
       inkscape:swatch="solid"><stop
         style="stop-color:#000000;stop-opacity:1;"
         offset="0"
         id="stop1765" /></linearGradient><linearGradient
       inkscape:collect="always"
       xlink:href="#linearGradient3751"
       id="linearGradient6677"
       gradientUnits="userSpaceOnUse"
       x1="0.024245445"
       y1="8.4666662"
       x2="16.909088"
       y2="8.4666662" /><linearGradient
       inkscape:collect="always"
       xlink:href="#linearGradient3751"
       id="linearGradient6679"
       gradientUnits="userSpaceOnUse"
       x1="0.024245445"
       y1="8.4666662"
       x2="16.909088"
       y2="8.4666662" /><linearGradient
       inkscape:collect="always"
       xlink:href="#linearGradient3751"
       id="linearGradient6681"
       gradientUnits="userSpaceOnUse"
       x1="0.024245445"
       y1="8.4666662"
       x2="16.909088"
       y2="8.4666662" /><linearGradient
       inkscape:collect="always"
       xlink:href="#linearGradient3751"
       id="linearGradient6683"
       gradientUnits="userSpaceOnUse"
       x1="0.024245445"
       y1="8.4666662"
       x2="16.909088"
       y2="8.4666662" /><linearGradient
       inkscape:collect="always"
       xlink:href="#linearGradient3751"
       id="linearGradient6685"
       gradientUnits="userSpaceOnUse"
       x1="0.024245445"
       y1="8.4666662"
       x2="16.909088"
       y2="8.4666662" /><linearGradient
       inkscape:collect="always"
       xlink:href="#linearGradient6727"
       id="linearGradient6729"
       x1="0.54214561"
       y1="10.225422"
       x2="16.185179"
       y2="10.225422"
       gradientUnits="userSpaceOnUse" /><linearGradient
       inkscape:collect="always"
       xlink:href="#linearGradient9639"
       id="linearGradient9641"
       x1="3.6302993"
       y1="10.273271"
       x2="13.303055"
       y2="10.273271"
       gradientUnits="userSpaceOnUse" /></defs><g
     inkscape:label="Layer 1"
     inkscape:groupmode="layer"
     id="layer1"><path
       stroke="#1b1b1b"
       stroke-linejoin="round"
       stroke-width="1.18748"
       d="m 6.8188783,0.97771879 c 1.0196578,-0.54351404 2.2759395,-0.54351404 3.2955977,0 L 14.66757,3.404696 c 1.019658,0.5435141 1.647778,1.547991 1.647778,2.6350191 V 10.89367 c 0,1.087028 -0.62812,2.091505 -1.647778,2.635019 l -4.553094,2.426939 c -1.0196582,0.543495 -2.2759399,0.543495 -3.2955977,0 L 2.2657841,13.528689 C 1.2461263,12.985175 0.61798543,11.980698 0.61798543,10.89367 V 6.0397151 c 0,-1.0870281 0.62814087,-2.091505 1.64779867,-2.6350191 z"
       id="path182"
       style="fill:none;stroke:url(#linearGradient6677);stroke-opacity:1" /><path
       stroke="#1b1b1b"
       stroke-width="1.18748"
       d="M 4.3471803,10.083105 8.4666769,8.0863599 12.174224,10.083105 M 8.4666769,8.2765261 v -3.613158"
       id="path184"
       style="fill:none;stroke:url(#linearGradient6679);stroke-opacity:1" /><path
       fill="#1b1b1b"
       d="m 15.158305,4.1706665 c 0.294729,-0.1588458 0.673126,-0.067015 0.845197,0.2050943 0.171989,0.2721088 0.0725,0.6214631 -0.222165,0.780309 z M 0.94923415,5.1577813 C 0.65349549,5.0005709 0.55176452,4.651768 0.72204391,4.3787083 0.8923233,4.1056677 1.2701223,4.0117446 1.5658816,4.168955 Z M 4.0388566,6.8000757 0.94923415,5.1577813 1.5658816,4.168955 4.655504,5.8112494 Z M 15.781337,5.1560698 12.734043,6.7983642 12.11101,5.8129609 15.158305,4.1706665 Z M 9.0846014,12.3651 c 0,-0.315087 -0.2766448,-0.570499 -0.6179245,-0.570499 -0.3412797,0 -0.6179245,0.255412 -0.6179245,0.570499 z m -1.235849,0 v 3.99349 h 1.235849 V 12.3651 Z"
       id="path186"
       style="stroke:url(#linearGradient6681);stroke-width:0.197913;stroke-opacity:1;fill:url(#linearGradient6729);fill-opacity:1" /><path
       fill="#1b1b1b"
       d="m 4.9651048,6.5650302 c 0,-0.3150864 -0.2766448,-0.5704986 -0.6179245,-0.5704986 -0.3412797,0 -0.6179245,0.2554122 -0.6179245,0.5704986 z m -1.235849,0 v 7.9869808 h 1.235849 V 6.5650302 Z m 9.4748422,0 c 0,-0.3150864 -0.276645,-0.5704986 -0.617924,-0.5704986 -0.34128,0 -0.617925,0.2554122 -0.617925,0.5704986 z m -1.235849,0 v 7.9869808 h 1.235849 V 6.5650302 Z"
       id="path188"
       style="stroke:url(#linearGradient6683);stroke-width:0.197913;stroke-opacity:1;fill-opacity:1;fill:url(#linearGradient9641)" /><path
       stroke="#1b1b1b"
       stroke-width="1.18748"
       d="M 4.8621174,2.1912074 12.586174,6.2797809 M 0.63963338,8.0863599 8.5696643,12.3651 M 4.3471803,6.2797809 12.071236,2.1912074 M 8.6726518,12.3651 16.602683,8.0863599"
       id="path190"
       style="fill:none;stroke:url(#linearGradient6685);stroke-opacity:1" /></g></svg>
